<svg width="81" height="131" viewBox="0 0 81 131" fill="none" xmlns="http://www.w3.org/2000/svg">
<path d="M2.64 121.68C2.64 121.92 4.4 121 7.92 118.92C11.44 116.84 14.6 114.16 17.4 110.88C20.2 107.6 21.6 103.8 21.6 99.48V38.76H4.92V29.04H32.88V99.48C32.88 105.96 31 111.52 27.24 116.16C23.48 120.8 19.24 124.48 14.52 127.2C9.88 129.92 7.56 131.08 7.56 130.68L2.64 121.68Z" fill="#8A733E"/>
<path d="M49.1582 30.125C49.11 29.9846 49.0299 29.8576 48.9251 29.7551C48.8203 29.6527 48.6939 29.5779 48.557 29.5375C48.4202 29.497 48.277 29.492 48.1402 29.523C48.0034 29.554 47.877 29.62 47.7723 29.7151L36.6374 39.3931C36.4846 39.5282 36.3764 39.7103 36.3272 39.915C36.2781 40.1198 36.2904 40.3376 36.3624 40.5391L41.6844 55.086C41.7326 55.2265 41.8126 55.3535 41.9175 55.4559C42.0223 55.5584 42.1487 55.6331 42.2855 55.6736C42.4224 55.7141 42.5656 55.719 42.7024 55.688C42.8392 55.6571 42.9656 55.5911 43.0703 55.4959L54.2056 45.816C54.3585 45.681 54.4667 45.4989 54.5158 45.2941C54.565 45.0893 54.5527 44.8716 54.4806 44.6701L49.1582 30.125V30.125ZM46.6619 28.1574C46.9762 27.8724 47.3552 27.6748 47.7656 27.5822C48.176 27.4895 48.6053 27.5045 49.0157 27.6259C49.4262 27.7473 49.8053 27.9713 50.1198 28.2784C50.4342 28.5854 50.6745 28.9661 50.8195 29.387L56.1419 43.9321C56.3591 44.5373 56.3964 45.1914 56.2488 45.8066C56.1012 46.4219 55.7757 46.9687 55.3161 47.3738L44.1812 57.0518C43.8668 57.3368 43.4878 57.5343 43.0774 57.627C42.667 57.7197 42.2377 57.7047 41.8273 57.5833C41.4169 57.4619 41.0378 57.2379 40.7233 56.9308C40.4088 56.6238 40.1685 56.2431 40.0235 55.8222L34.7007 41.279C34.4835 40.6738 34.4462 40.0196 34.5938 39.4044C34.7414 38.7892 35.0669 38.2423 35.5265 37.8373L46.6619 28.1574Z" fill="#8A733E"/>
<path d="M47.8668 101.891C47.9718 101.986 48.0983 102.052 48.2352 102.082C48.3722 102.113 48.5153 102.108 48.652 102.067C48.7888 102.026 48.915 101.951 49.0196 101.848C49.1241 101.745 49.2038 101.618 49.2516 101.477L54.5359 86.915C54.6075 86.7132 54.6192 86.4954 54.5695 86.2908C54.5198 86.0862 54.4111 85.9044 54.2579 85.7699L43.0973 76.126C42.9923 76.0312 42.8658 75.9656 42.7289 75.9351C42.592 75.9045 42.4489 75.91 42.3121 75.9509C42.1753 75.9918 42.0491 76.067 41.9446 76.1697C41.84 76.2725 41.7603 76.3998 41.7125 76.5404L36.4287 91.1044C36.3571 91.3062 36.3454 91.524 36.3951 91.7286C36.4448 91.9332 36.5535 92.115 36.7067 92.2495L47.8668 101.891V101.891ZM50.9149 102.21C50.771 102.631 50.5317 103.013 50.218 103.321C49.9044 103.629 49.5259 103.854 49.1157 103.977C48.7056 104.099 48.2764 104.116 47.8658 104.024C47.4551 103.933 47.0756 103.737 46.7605 103.453L35.6003 93.8108C35.1396 93.4072 34.8127 92.8614 34.6635 92.2467C34.5142 91.632 34.5498 90.9777 34.7654 90.3718L40.0497 75.8096C40.1936 75.3882 40.4329 75.0068 40.7465 74.6987C41.0602 74.3906 41.4387 74.1654 41.8488 74.0427C42.259 73.9199 42.6882 73.9036 43.0988 73.9949C43.5095 74.0863 43.889 74.2826 44.2041 74.5666L55.3638 84.2067C55.8245 84.6103 56.1514 85.1561 56.3007 85.7708C56.4499 86.3856 56.4143 87.0398 56.1987 87.6458L50.9149 102.21Z" fill="#8A733E"/>
<path d="M77.1066 67.0939C77.2558 66.9721 77.378 66.8079 77.4624 66.6157C77.5467 66.4236 77.5907 66.2093 77.5904 65.9918C77.5901 65.7743 77.5456 65.5602 77.4607 65.3683C77.3759 65.1764 77.2532 65.0126 77.1037 64.8913L61.7235 51.8384C61.5098 51.6601 61.2561 51.5647 60.9963 51.5651C60.7365 51.5655 60.4831 51.6617 60.2698 51.8408L44.9216 64.9433C44.7723 65.065 44.6501 65.2292 44.5657 65.4214C44.4814 65.6135 44.4374 65.8278 44.4377 66.0453C44.438 66.2628 44.4825 66.477 44.5674 66.6689C44.6522 66.8607 44.7749 67.0245 44.9244 67.1458L60.307 80.1987C60.5207 80.3771 60.7744 80.4724 61.0342 80.472C61.2939 80.4716 61.5474 80.3754 61.7606 80.1963L77.1066 67.0939V67.0939ZM78.5568 62.6864C79.005 63.0507 79.3724 63.5422 79.6267 64.1178C79.8809 64.6934 80.0144 65.3356 80.0152 65.9879C80.0161 66.6402 79.8843 67.2827 79.6316 67.8592C79.3788 68.4356 79.0127 68.9283 78.5655 69.2941L63.2195 82.3965C62.5795 82.9354 61.8182 83.2249 61.0378 83.2262C60.2574 83.2274 59.4953 82.9404 58.8539 82.4036L43.4737 69.3507C43.0254 68.9864 42.6581 68.4949 42.4038 67.9193C42.1495 67.3437 42.0161 66.7015 42.0153 66.0492C42.0144 65.3969 42.1461 64.7544 42.3989 64.1779C42.6517 63.6015 43.0177 63.1088 43.465 62.7431L58.8086 49.6406C59.4486 49.1017 60.2099 48.8122 60.9903 48.811C61.7707 48.8097 62.5328 49.0967 63.1742 49.6335L78.5568 62.6864Z" fill="#8A733E"/>
</svg>

